<?xml version="1.0" encoding="utf-8"?>
<!-- Generator: Adobe Illustrator 24.1.2, SVG Export Plug-In . SVG Version: 6.00 Build 0)  -->
<svg version="1.1" id="Capa_1" xmlns="http://www.w3.org/2000/svg" xmlns:xlink="http://www.w3.org/1999/xlink" x="0px" y="0px"
	 viewBox="0 0 24 24" style="enable-background:new 0 0 24 24;" xml:space="preserve">
<style type="text/css">
	.st0{fill:#DC143C;}
</style>
<g>
	<g>
		<path class="st0" d="M15.4,20.6H8.6c-0.5,0-0.9-0.4-0.9-0.9v-1.9c-3.9-2-5.9-6.3-4.9-10.6c0.9-3.6,3.9-6.4,7.5-7.1
			c2.8-0.5,5.6,0.3,7.7,2.1s3.3,4.4,3.3,7.2c0,3.6-2,6.8-5.1,8.4v1.9C16.3,20.2,15.9,20.6,15.4,20.6z M9.4,18.9h5.1v-1.6
			c0-0.3,0.2-0.6,0.5-0.8c2.8-1.2,4.6-4,4.6-7.1l0,0c0-2.3-1-4.4-2.7-5.9s-4-2.1-6.3-1.7c-3,0.5-5.5,2.8-6.2,5.8
			c-0.9,3.7,1,7.4,4.4,8.9c0.3,0.1,0.5,0.4,0.5,0.8v1.6H9.4z"/>
	</g>
	<g>
		<path class="st0" d="M15.4,24H8.6c-0.5,0-0.9-0.4-0.9-0.9s0.4-0.9,0.9-0.9h6.9c0.5,0,0.9,0.4,0.9,0.9C16.3,23.6,15.9,24,15.4,24z"
			/>
	</g>
	<g>
		<path class="st0" d="M13.7,15.4c-0.5,0-0.9-0.4-0.9-0.9V12h-1.7v2.6c0,0.5-0.4,0.9-0.9,0.9s-0.9-0.4-0.9-0.9V12H8.6
			C7.2,12,6,10.8,6,9.4s1.2-2.6,2.6-2.6s2.6,1.2,2.6,2.6v0.9h1.7V9.4c0-1.4,1.2-2.6,2.6-2.6S18,8,18,9.4S16.8,12,15.4,12h-0.9v2.6
			C14.6,15,14.2,15.4,13.7,15.4z M14.6,10.3h0.9c0.5,0,0.9-0.4,0.9-0.9S16,8.5,15.5,8.5s-0.9,0.4-0.9,0.9V10.3z M8.6,8.6
			C8.1,8.6,7.7,9,7.7,9.4s0.4,0.9,0.9,0.9h0.9V9.4C9.4,9,9,8.6,8.6,8.6z"/>
	</g>
</g>
</svg>
